<?xml version="1.0" encoding="UTF-8"?> <svg xmlns="http://www.w3.org/2000/svg" xmlns:xlink="http://www.w3.org/1999/xlink" id="Livello_1" data-name="Livello 1" height="1080" width="1920" viewBox="0 0 720 1080"><defs><style>.cls-1{fill:url(#Sfumatura_senza_nome_173);}.cls-2{fill:#fff;}</style><linearGradient id="Sfumatura_senza_nome_173" x1="1260.3" y1="1079.5" x2="1260.3" y2="0.5" gradientUnits="userSpaceOnUse"><stop offset="0" stop-color="#55efc4"></stop><stop offset="0.06" stop-color="#49dec9"></stop><stop offset="0.21" stop-color="#2db7d4"></stop><stop offset="0.34" stop-color="#199bdc"></stop><stop offset="0.46" stop-color="#0d8ae1"></stop><stop offset="0.55" stop-color="#0984e3"></stop><stop offset="0.63" stop-color="#0779dc"></stop><stop offset="1" stop-color="#004cbf"></stop></linearGradient></defs><title>Background</title><path class="cls-1" d="M1598.41,1079.5l-.41,0c-11.35-.08-23.31-.7-36.57-1.91-42.38-3.84-82.44-14.07-119.08-30.39-46.23-20.6-89.88-51-133.46-93.05C1252.17,899.45,1206.7,837.27,1166,778.21c-63.34-91.92-119.23-190.52-173.27-285.88l-6.9-12.17C935.42,391.27,881,297,818.49,207.39,784.93,159.27,748.36,108.67,703,65.31c-32.63-31.16-62.1-50.55-92.74-61-1-.33-1.81-.64-2.62-.93a50.07,50.07,0,0,0-6.5-2L602.51.5h1317v1079Z" transform="translate(-599.76)"></path><path class="cls-2" d="M1919,1V1079H1598c-11.34-.08-23.29-.7-36.53-1.9-42.33-3.84-82.34-14-118.93-30.36-46.17-20.57-89.77-51-133.31-93-56.69-54.64-102.15-116.81-142.83-175.84C1103.09,686,1047.2,587.44,993.16,492.09l-6.9-12.17C935.85,391,881.41,296.71,818.9,207.1,785.32,159,748.74,108.34,703.31,65c-32.69-31.21-62.22-50.64-92.92-61.13-1-.33-1.81-.64-2.61-.93-1.75-.63-3.31-1.2-5.38-1.74l.25-.15H1919m1-1H602.37l-2.61,1.56c4.48.93,6.52,1.91,10.3,3.21C645.67,16.93,676,40.21,702.61,65.68c44.42,42.41,80.47,91.82,115.47,142,61.12,87.62,114.68,179.9,167.31,272.73,57.29,101,114.2,202.3,180.2,298.09,43,62.44,88.14,123.15,143,176,39.57,38.15,83.12,70.65,133.6,93.15,38,16.93,78.15,26.71,119.25,30.43,12.23,1.11,24.37,1.82,36.61,1.91v0h322V0Z" transform="translate(-599.76)"></path></svg> 