<?xml version="1.0" encoding="UTF-8"?> <svg xmlns="http://www.w3.org/2000/svg" id="Livello_1" data-name="Livello 1" width="289" height="99" viewBox="0 0 289 99"><defs><style>.cls-1,.cls-3{fill:#fff;}.cls-2{fill:#004cbf;}.cls-3{stroke:#fff;stroke-miterlimit:10;}</style></defs><title>VISIOmultimedia_Logo</title><rect class="cls-1" width="289" height="99" rx="20.73"></rect><rect class="cls-2" x="13.07" y="11.68" width="76.01" height="76.01" rx="19.27"></rect><path class="cls-1" d="M51.14,66.24a9.82,9.82,0,0,1-1.09-.06,10.15,10.15,0,0,1-3.28-.83,12.86,12.86,0,0,1-3.7-2.59,32.13,32.13,0,0,1-4.06-5c-1.82-2.63-3.42-5.47-5-8.21l-.19-.34c-1.46-2.57-3-5.3-4.85-7.9a26.7,26.7,0,0,0-3.39-4.17,8.82,8.82,0,0,0-2.18-1.59l1.07-.62a11.07,11.07,0,0,1,3.9-1.22,10,10,0,0,1,3.21.11A10.8,10.8,0,0,1,36.38,36a18.54,18.54,0,0,1,3.72,4c1.44,2,2.86,4.15,4.24,6.19l.32.48,2.51,3.75c.73,1.09,1.45,2.18,2.18,3.26a23.2,23.2,0,0,0,3,3.77,11.74,11.74,0,0,0,3.16,2.37,7.4,7.4,0,0,0,3.19.68,8.83,8.83,0,0,0,.89,0,9.88,9.88,0,0,0,3-.79,20.49,20.49,0,0,1-2.81,3,14.41,14.41,0,0,1-3.35,2.35,10.77,10.77,0,0,1-4.08,1.11A8.53,8.53,0,0,1,51.14,66.24Z" transform="translate(0 -0.25)"></path><path class="cls-1" d="M29.63,34.13a10.13,10.13,0,0,1,1.88.18,10.38,10.38,0,0,1,4.56,2.11,18,18,0,0,1,3.62,3.93c1.45,2,2.87,4.17,4.25,6.21l.31.45,2.51,3.75L48.93,54a24.57,24.57,0,0,0,3,3.85,12.26,12.26,0,0,0,3.3,2.46,7.89,7.89,0,0,0,3.4.73c.3,0,.62,0,.94,0A9.92,9.92,0,0,0,61,60.78c-.46.5-1,1-1.61,1.55a13.94,13.94,0,0,1-3.22,2.26,10.36,10.36,0,0,1-3.94,1.08,9.48,9.48,0,0,1-1.08.07c-.32,0-.66,0-1,0a9.88,9.88,0,0,1-3.12-.8,12.59,12.59,0,0,1-3.57-2.49,32.34,32.34,0,0,1-4-4.92c-1.8-2.61-3.4-5.44-5-8.17L34.28,49c-1.47-2.58-3.05-5.32-4.88-7.94A27.41,27.41,0,0,0,26,36.78a11.42,11.42,0,0,0-1.53-1.24l.31-.17a10.53,10.53,0,0,1,3.72-1.17,11.5,11.5,0,0,1,1.18-.07m0-1a11.2,11.2,0,0,0-1.3.08,11.5,11.5,0,0,0-4.08,1.28c-.67.36-1.31.78-2,1.16a2.11,2.11,0,0,1,.3.1,7.43,7.43,0,0,1,2.66,1.75,26.29,26.29,0,0,1,3.33,4.1c1.76,2.52,3.31,5.18,4.83,7.86,1.65,2.91,3.29,5.83,5.19,8.59a32.38,32.38,0,0,0,4.12,5.07,13.19,13.19,0,0,0,3.85,2.68,10.77,10.77,0,0,0,3.44.88,10.55,10.55,0,0,0,1.13.06,10.26,10.26,0,0,0,1.22-.08,11.59,11.59,0,0,0,4.23-1.16,14.89,14.89,0,0,0,3.46-2.43,20.37,20.37,0,0,0,3.1-3.33c.18-.24.68-1,.85-1.29l-.45.23a10.67,10.67,0,0,1-4,1.34,8.19,8.19,0,0,1-.85,0,6.9,6.9,0,0,1-3-.64,11,11,0,0,1-3-2.27,23.63,23.63,0,0,1-2.91-3.69c-1.56-2.33-3.11-4.68-4.69-7s-3-4.47-4.56-6.67a19.06,19.06,0,0,0-3.82-4.15,11.28,11.28,0,0,0-5-2.3,11,11,0,0,0-2.06-.2Z" transform="translate(0 -0.25)"></path><path class="cls-1" d="M59.56,57.38a6.63,6.63,0,0,1-2.07-.32c-2.29-.72-4.44-3.3-5.1-4.16l1.49-2.14L57,46.29q2.07-3,4.17-5.88a20.24,20.24,0,0,1,3.79-4.13,11.46,11.46,0,0,1,6.13-2.58,11.15,11.15,0,0,1,1.29-.07,11,11,0,0,1,2.88.37,12.15,12.15,0,0,1,3.61,1.55,7.4,7.4,0,0,0-1.43.87,14.38,14.38,0,0,0-2.7,2.67,64.73,64.73,0,0,0-5.23,7.59c-.8,1.35-1.66,3-2.5,4.59s-1.71,3.28-2.52,4.63a10.63,10.63,0,0,1-4.91,1.48Z" transform="translate(0 -0.25)"></path><path class="cls-1" d="M72.36,34.13a10.85,10.85,0,0,1,2.75.35,12.43,12.43,0,0,1,2.72,1.05c-.23.14-.47.3-.71.48a15.69,15.69,0,0,0-2.79,2.76,65.09,65.09,0,0,0-5.26,7.66c-.82,1.35-1.68,3-2.52,4.61s-1.65,3.17-2.44,4.48a9.68,9.68,0,0,1-4.55,1.36,6.57,6.57,0,0,1-1.92-.29C55.7,56,53.83,53.88,53,52.88l1.21-1.74c1.13-1.64,2.42-3.5,3.17-4.57C58.53,45,60,42.83,61.55,40.7a20.37,20.37,0,0,1,3.7-4,11,11,0,0,1,5.87-2.47,10.43,10.43,0,0,1,1.24-.07m0-1A11.9,11.9,0,0,0,71,33.2a12.05,12.05,0,0,0-6.4,2.69,20.82,20.82,0,0,0-3.88,4.23C59.34,42.07,58,44,56.58,46c-1.17,1.66-3.64,5.24-4.8,6.91,0,0,2.62,3.7,5.56,4.63a7.31,7.31,0,0,0,2.22.34,11,11,0,0,0,5.27-1.61c1.64-2.71,3.47-6.61,5.09-9.33a64.64,64.64,0,0,1,5.19-7.54,14.17,14.17,0,0,1,2.61-2.58,6.68,6.68,0,0,1,2.13-1.12c0-.07-.06-.1-.09-.11a12.06,12.06,0,0,0-4.39-2.07,11.41,11.41,0,0,0-3-.39Z" transform="translate(0 -0.25)"></path><path class="cls-3" d="M51.06,55.17" transform="translate(0 -0.25)"></path><path class="cls-2" d="M114.56,60.32,97.46,12.06h10.07l10.61,31.58c.28.82.6,1.93,1,3.31.18-.83.48-1.94.9-3.31l10.61-31.58h9.93l-17,48.26Z" transform="translate(0 -0.25)"></path><path class="cls-2" d="M146.76,60.32V12.06h9.3V60.32Z" transform="translate(0 -0.25)"></path><path class="cls-2" d="M183.44,61.15a19.68,19.68,0,0,1-11.72-3.52,18.82,18.82,0,0,1-7-9.72l8.48-3.17a14,14,0,0,0,4.35,5.51,10,10,0,0,0,6.2,2.07,9.55,9.55,0,0,0,5.69-1.51,5,5,0,0,0,2.1-4.35,4.73,4.73,0,0,0-.69-2.55,6.18,6.18,0,0,0-2.34-2,30,30,0,0,0-2.93-1.41c-.85-.35-2.13-.79-3.83-1.35-1.93-.64-3.39-1.14-4.38-1.51a34,34,0,0,1-3.89-1.86,14.31,14.31,0,0,1-3.66-2.66,13.35,13.35,0,0,1-2.24-3.58,12.26,12.26,0,0,1-1-5A12,12,0,0,1,171,15.06q4.41-3.83,11.92-3.83a17.28,17.28,0,0,1,10.45,3.1A14.59,14.59,0,0,1,199,22.4l-8.34,2.76q-2.28-5.1-8.28-5.1a8.06,8.06,0,0,0-4.72,1.2,4,4,0,0,0-1.69,3.42,3.31,3.31,0,0,0,1.38,2.58A10.74,10.74,0,0,0,180.13,29q1.44.6,4.55,1.62c1.61.56,2.85,1,3.72,1.32s2.07.82,3.59,1.51a14.86,14.86,0,0,1,3.55,2.14,34.76,34.76,0,0,1,2.69,2.65,9.27,9.27,0,0,1,2,3.66,16.26,16.26,0,0,1,.62,4.58A13,13,0,0,1,196,57.22Q191,61.15,183.44,61.15Z" transform="translate(0 -0.25)"></path><path class="cls-2" d="M210.19,60.32V12.06h9.3V60.32Z" transform="translate(0 -0.25)"></path><path class="cls-2" d="M258.62,59.7a23.74,23.74,0,0,1-16.34,0,17,17,0,0,1-6.07-3.9,23.28,23.28,0,0,1-4-5.68,25.39,25.39,0,0,1-2.34-6.73,38,38,0,0,1,0-14.41,25.45,25.45,0,0,1,2.34-6.72,23.53,23.53,0,0,1,4-5.69,16.93,16.93,0,0,1,6.07-3.89,23.74,23.74,0,0,1,16.34,0,16.93,16.93,0,0,1,6.07,3.89,22.9,22.9,0,0,1,4,5.69A26.49,26.49,0,0,1,271,29a38,38,0,0,1,0,14.41,26.42,26.42,0,0,1-2.31,6.73,22.66,22.66,0,0,1-4,5.68A17,17,0,0,1,258.62,59.7Zm-8.17-7.51a9.84,9.84,0,0,0,5.38-1.49,10.37,10.37,0,0,0,3.65-3.93,20.66,20.66,0,0,0,1.93-5.13,23.85,23.85,0,0,0,.62-5.45,24.65,24.65,0,0,0-.62-5.65,20,20,0,0,0-1.89-5.07,10,10,0,0,0-3.62-3.83,10.23,10.23,0,0,0-5.45-1.45,10.08,10.08,0,0,0-9.14,5.42,21.47,21.47,0,0,0-1.89,5.1,24.23,24.23,0,0,0-.62,5.48,25.8,25.8,0,0,0,1,7.45,13.33,13.33,0,0,0,3.79,6A9.7,9.7,0,0,0,250.45,52.19Z" transform="translate(0 -0.25)"></path><path class="cls-2" d="M129.36,72.93a1.2,1.2,0,0,1,.39.92V86.23a1.25,1.25,0,0,1-.36.92,1.27,1.27,0,0,1-1,.38,1.32,1.32,0,0,1-1-.36,1.27,1.27,0,0,1-.38-.94V77.62L123.56,83a2.14,2.14,0,0,1-.49.42,1,1,0,0,1-.58.13,1,1,0,0,1-.56-.13,2,2,0,0,1-.49-.42l-3.52-5.58v8.81a1.33,1.33,0,0,1-.35.94,1.24,1.24,0,0,1-1.77,0,1.28,1.28,0,0,1-.34-.92V73.85a1.23,1.23,0,0,1,.39-.91,1.31,1.31,0,0,1,1-.39,1.42,1.42,0,0,1,.65.16,1.35,1.35,0,0,1,.49.42l4.65,7.16,4.79-7.16a1.33,1.33,0,0,1,.46-.42,1.16,1.16,0,0,1,.59-.16A1.33,1.33,0,0,1,129.36,72.93Z" transform="translate(0 -0.25)"></path><path class="cls-2" d="M146,72.91a1.33,1.33,0,0,1,.34.94v7.74a6.42,6.42,0,0,1-.75,3.14,5.44,5.44,0,0,1-2.09,2.14,6.15,6.15,0,0,1-3.08.77,6.21,6.21,0,0,1-3.09-.77,5.47,5.47,0,0,1-2.1-2.14,6.42,6.42,0,0,1-.75-3.14V73.85a1.2,1.2,0,0,1,.39-.92,1.33,1.33,0,0,1,1-.38,1.27,1.27,0,0,1,.9.38,1.23,1.23,0,0,1,.38.92v7.74a3.7,3.7,0,0,0,.45,1.83,3.09,3.09,0,0,0,1.21,1.22,3.21,3.21,0,0,0,1.63.43,3.54,3.54,0,0,0,1.72-.43,3.19,3.19,0,0,0,1.28-1.22,3.52,3.52,0,0,0,.48-1.83V73.85a1.41,1.41,0,0,1,.32-.94,1.13,1.13,0,0,1,.88-.36A1.19,1.19,0,0,1,146,72.91Z" transform="translate(0 -0.25)"></path><path class="cls-2" d="M160.19,85.38a1.2,1.2,0,0,1,.37.91,1.17,1.17,0,0,1-.37.89,1.33,1.33,0,0,1-.93.35h-6.95a1.27,1.27,0,0,1-.93-.38,1.22,1.22,0,0,1-.37-.92V73.88a1.27,1.27,0,0,1,.38-.93,1.37,1.37,0,0,1,1-.38,1.29,1.29,0,0,1,.92.38,1.27,1.27,0,0,1,.38.93V85h5.58A1.33,1.33,0,0,1,160.19,85.38Z" transform="translate(0 -0.25)"></path><path class="cls-2" d="M173.14,72.91a1.16,1.16,0,0,1,.37.9,1.13,1.13,0,0,1-.37.89,1.33,1.33,0,0,1-.94.33h-3.35v11.2a1.19,1.19,0,0,1-.41.92,1.41,1.41,0,0,1-1,.38,1.33,1.33,0,0,1-1-.38,1.2,1.2,0,0,1-.39-.92V75h-3.35a1.29,1.29,0,0,1-.94-.34,1.19,1.19,0,0,1-.36-.9,1.15,1.15,0,0,1,.37-.88,1.36,1.36,0,0,1,.93-.34h9.48A1.34,1.34,0,0,1,173.14,72.91Z" transform="translate(0 -0.25)"></path><path class="cls-2" d="M179.51,87.15a1.34,1.34,0,0,1-.94.38,1.3,1.3,0,0,1-.95-.38,1.22,1.22,0,0,1-.37-.92V73.88a1.23,1.23,0,0,1,.38-.93,1.35,1.35,0,0,1,1-.38,1.26,1.26,0,0,1,.92.38,1.24,1.24,0,0,1,.39.93V86.23A1.19,1.19,0,0,1,179.51,87.15Z" transform="translate(0 -0.25)"></path><path class="cls-2" d="M198.51,72.93a1.18,1.18,0,0,1,.4.92V86.23a1.25,1.25,0,0,1-.36.92,1.31,1.31,0,0,1-1,.38,1.35,1.35,0,0,1-1-.36,1.27,1.27,0,0,1-.37-.94V77.62L192.71,83a1.79,1.79,0,0,1-.49.42,1,1,0,0,1-.57.13,1,1,0,0,1-.56-.13,1.79,1.79,0,0,1-.49-.42l-3.53-5.58v8.81a1.33,1.33,0,0,1-.34.94,1.19,1.19,0,0,1-.9.36,1.14,1.14,0,0,1-.87-.38,1.28,1.28,0,0,1-.34-.92V73.85a1.23,1.23,0,0,1,.39-.91,1.31,1.31,0,0,1,1-.39,1.35,1.35,0,0,1,.64.16,1.2,1.2,0,0,1,.49.42l4.66,7.16,4.79-7.16a1.25,1.25,0,0,1,.46-.42,1.13,1.13,0,0,1,.58-.16A1.3,1.3,0,0,1,198.51,72.93Z" transform="translate(0 -0.25)"></path><path class="cls-2" d="M213,85.45a1.15,1.15,0,0,1,.37.86,1.13,1.13,0,0,1-.37.88,1.36,1.36,0,0,1-.93.34h-7.16a1.27,1.27,0,0,1-.93-.38,1.22,1.22,0,0,1-.37-.92V73.88a1.28,1.28,0,0,1,1.3-1.31h7.16a1.29,1.29,0,0,1,.93.36,1.16,1.16,0,0,1,.37.9,1.12,1.12,0,0,1-.36.87,1.35,1.35,0,0,1-.94.33h-5.79v3.63h4.83A1.33,1.33,0,0,1,212,79a1.2,1.2,0,0,1,.37.91,1.12,1.12,0,0,1-.36.87,1.35,1.35,0,0,1-.94.33h-4.83v3.95h5.79A1.27,1.27,0,0,1,213,85.45Z" transform="translate(0 -0.25)"></path><path class="cls-2" d="M227.19,73.57a6.35,6.35,0,0,1,2.2,2.69,10,10,0,0,1,0,7.58,6.29,6.29,0,0,1-2.2,2.69,5.93,5.93,0,0,1-3.46,1h-5.1a1.27,1.27,0,0,1-.93-.38,1.22,1.22,0,0,1-.37-.92V73.88a1.28,1.28,0,0,1,1.3-1.31h5.1A5.93,5.93,0,0,1,227.19,73.57Zm-.78,10.08a6.31,6.31,0,0,0,1-3.6,6.24,6.24,0,0,0-1-3.6A3.23,3.23,0,0,0,223.52,75H220v10h3.52A3.27,3.27,0,0,0,226.41,83.65Z" transform="translate(0 -0.25)"></path><path class="cls-2" d="M236.36,87.15a1.34,1.34,0,0,1-.94.38,1.3,1.3,0,0,1-.95-.38,1.22,1.22,0,0,1-.37-.92V73.88a1.23,1.23,0,0,1,.38-.93,1.37,1.37,0,0,1,1-.38,1.26,1.26,0,0,1,.92.38,1.24,1.24,0,0,1,.39.93V86.23A1.19,1.19,0,0,1,236.36,87.15Z" transform="translate(0 -0.25)"></path><path class="cls-2" d="M253.3,86.37a1.2,1.2,0,0,1-.36.91,1.15,1.15,0,0,1-.83.36,1.12,1.12,0,0,1-.7-.24,1.66,1.66,0,0,1-.48-.64l-1.11-2.59h-6.37l-1.11,2.61a1.3,1.3,0,0,1-.46.63,1.21,1.21,0,0,1-1.51-.07,1.1,1.1,0,0,1-.29-.82,1.49,1.49,0,0,1,.06-.4l5.32-12.78a1.49,1.49,0,0,1,.52-.66,1.07,1.07,0,0,1,.76-.19,1.25,1.25,0,0,1,.72.22,1.27,1.27,0,0,1,.48.63l5.26,12.52A1.48,1.48,0,0,1,253.3,86.37Zm-8.8-4.65h4.27l-2.15-5Z" transform="translate(0 -0.25)"></path></svg> 